<?xml version="1.0" encoding="utf-8"?>
<!-- Generator: Adobe Illustrator 19.0.0, SVG Export Plug-In . SVG Version: 6.00 Build 0)  -->
<svg version="1.2" baseProfile="tiny" id="Layer_1" xmlns="http://www.w3.org/2000/svg" xmlns:xlink="http://www.w3.org/1999/xlink"
	 x="0px" y="0px" viewBox="0 0 1197.3 398" xml:space="preserve">
<path id="XMLID_15_" fill="#0E0F38" d="M156,351.9L156,351.9c-64.6,0-117-52.4-117-117v-72c0-64.6,52.4-117,117-117h0
	c64.6,0,117,52.4,117,117v72C273,299.5,220.6,351.9,156,351.9z"/>
<rect id="_x3C_Slice_x3E_" x="349.3" y="-244" fill="none" width="252" height="460"/>
<g id="XMLID_19_">
	<path id="XMLID_20_" fill="#E5E65D" d="M86.2,90.3L86.2,90.3c0.7-9.8-5.2,54.6-0.7,55.9l138.3-33.7c4.5,1.3,7.5,10.3,6.7,20v0
		c-0.7,9.8-5,16.6-9.4,15.3L92.9,110.3C88.4,109,85.4,100,86.2,90.3z"/>
</g>
<path id="XMLID_18_" fill="#E5E65D" d="M190,289.5L190,289.5c-4.4-0.6-7.3-4.1-6.5-7.8l22.2-104.7c0.8-3.6,5-6.1,9.3-5.4h0
	c4.4,0.6,7.3,4.1,6.5,7.8l-22.2,104.7C198.6,287.7,194.4,290.1,190,289.5z"/>
<path id="XMLID_17_" fill="#E5E65D" d="M126.9,288.1L126.9,288.1c-4.7,0.6-9.2-1.8-10.1-5.4L92.8,178c-0.8-3.6,2.3-7.1,7.1-7.8h0
	c4.7-0.6,9.2,1.8,10.1,5.4l24,104.7C134.8,283.9,131.6,287.4,126.9,288.1z"/>
<path id="XMLID_16_" fill="#E5E65D" d="M118.3,278.9l0.2-3.9c0.3-6.1,5.3-10.7,11.1-10.4l10,0.5c5.9,0.3,10.4,5.4,10.1,11.5
	l-0.2,3.9c-0.3,6.1-5.3,10.7-11.1,10.4l-10-0.5C122.5,290.1,118,284.9,118.3,278.9z"/>
<rect id="XMLID_49_" x="157.3" y="188.9" fill="#E5E65D" width="2.6" height="99.7"/>
<path id="XMLID_50_" fill="#E5E65D" d="M177.5,288.9h-9.4c-0.7,0-1.3-0.6-1.3-1.3v-97.2c0-0.7,0.6-1.3,1.3-1.3h9.4
	c0.7,0,1.3,0.6,1.3,1.3v97.2C178.7,288.4,178.2,288.9,177.5,288.9z"/>
<g id="XMLID_674_">
	<rect id="XMLID_28_" x="279.2" y="98.8" fill="none" width="945.1" height="234"/>
	<path id="XMLID_4_" fill="#E5E65D" d="M302.6,105.4c0-3.3,3-6.6,6.6-6.6h9c3.3,0,6.6,3.3,6.6,6.6v117.3l57.6-48.3
		c3-2.7,5.7-4.2,8.4-4.2h16.8c6,0,5.7,6.6,3.3,8.4L347,231.7l68.7,68.4c2.7,2.4,2.4,8.7-3.6,8.7H395c-2.7,0-5.4-1.5-6.9-2.7
		l-63.3-66.9v63c0,3.6-3.3,6.6-6.6,6.6h-9c-3.6,0-6.6-3-6.6-6.6V105.4z"/>
	<path id="XMLID_6_" fill="#E5E65D" d="M491,220.9c14.7,0,29.7,4.5,29.7,4.5c0.3-25.5-3-38.1-22.8-38.1c-18.9,0-34.8,6-41.1,8.1
		c-3.6,1.5-5.4-0.3-6.6-3.6l-3-8.1c-1.2-4.2,0.9-6,4.2-7.5c6.9-3,24.9-9,47.7-9c35.4,0,42.9,17.4,42.9,58.2v76.8
		c0,3.6-3,6.6-6.6,6.6h-5.7c-3.6,0-4.8-2.1-5.7-5.1l-2.7-9.3c-7.2,7.2-21.6,17.7-42.9,17.7c-24.3,0-42.9-17.4-42.9-45.3
		C435.5,240.4,455.3,220.9,491,220.9z M482.3,292c17.1,0,32.1-9.6,38.1-18.6v-28.2c-4.5-2.4-15.6-5.4-29.4-5.4
		c-19.2,0-33.6,9.3-33.6,27C457.4,280.9,467,292,482.3,292z"/>
	<path id="XMLID_9_" fill="#E5E65D" d="M575.6,301.6c0-2.1,0.6-3.6,1.8-5.4L647.6,190v-0.9h-62.7c-3.3,0-5.7-3-5.7-6.6v-5.7
		c0-3.9,2.4-6.6,5.7-6.6h87.9c4.5,0,6.3,2.4,6.3,6c0,1.2-0.3,2.4-1.2,3.6L607.1,289v0.9H665c4.2,0,6.6,2.4,6.6,6.6v5.7
		c0,3.6-2.4,6.6-6.6,6.6h-82.8c-3.6,0-6.6-3-6.6-6.6V301.6z"/>
	<path id="XMLID_11_" fill="#E5E65D" d="M706.1,118.3c0-9.6,7.2-16.8,16.2-16.8c9.3,0,16.5,7.2,16.5,16.8c0,8.7-7.2,16.2-16.5,16.2
		C713.3,134.5,706.1,127,706.1,118.3z M711.8,176.8c0-3.3,3-6.6,6.6-6.6h9c3.3,0,6.6,3.3,6.6,6.6v125.4c0,3.6-3.3,6.6-6.6,6.6h-9
		c-3.6,0-6.6-3-6.6-6.6V176.8z"/>
	<path id="XMLID_14_" fill="#E5E65D" d="M780.8,105.4c0-3.3,2.7-6.6,6.3-6.6h9c3.3,0,6.6,3.3,6.6,6.6v70.5c0,0,15.3-8.7,38.4-8.7
		c41.4,0,65.4,31.5,65.4,72c0,39.6-26.7,72.9-62.1,72.9c-28.2,0-43.8-18-43.8-18l-1.8,9c-0.6,3.3-2.7,5.7-6,5.7h-5.4
		c-3.6,0-6.6-3-6.6-6.6V105.4z M842,292c25.2,0,42-25.5,42-52.5c0-27.6-15.9-52.2-46.2-52.2c-19.2,0-35.1,8.7-35.1,8.7v73.2
		C802.7,269.2,817.1,292,842,292z"/>
	<path id="XMLID_23_" fill="#E5E65D" d="M938.9,118.3c0-9.6,7.2-16.8,16.2-16.8c9.3,0,16.5,7.2,16.5,16.8c0,8.7-7.2,16.2-16.5,16.2
		C946.1,134.5,938.9,127,938.9,118.3z M944.6,176.8c0-3.3,3-6.6,6.6-6.6h9c3.3,0,6.6,3.3,6.6,6.6v125.4c0,3.6-3.3,6.6-6.6,6.6h-9
		c-3.6,0-6.6-3-6.6-6.6V176.8z"/>
	<path id="XMLID_26_" fill="#E5E65D" d="M1013.6,176.8c0-3.3,3-6.6,6.6-6.6h4.8c3,0,4.8,1.2,5.4,4.2l3,10.5c0,0,17.7-17.7,46.5-17.7
		c40.2,0,50.1,26.1,50.1,61.8v73.2c0,3.6-3.3,6.6-6.6,6.6h-9c-3.6,0-6.6-3-6.6-6.6V226c0-26.4-9-38.7-29.4-38.7
		c-26.1,0-42.6,19.2-42.6,19.2v95.7c0,3.6-3.3,6.6-6.6,6.6h-9c-3.6,0-6.6-3-6.6-6.6V176.8z"/>
</g>
<path id="XMLID_1_" fill="#E5E65D" d="M157.4,113.5h-0.7c-5.3,0-9.6-4.3-9.6-9.6v-0.7c0-5.3,4.3-9.6,9.6-9.6h0.7
	c5.3,0,9.6,4.3,9.6,9.6v0.7C167,109.2,162.7,113.5,157.4,113.5z"/>
<g id="XMLID_2_">
</g>
<g id="XMLID_3_">
</g>
<g id="XMLID_29_">
</g>
<g id="XMLID_30_">
</g>
<g id="XMLID_31_">
</g>
</svg>
